# xmcd CD database file
#
# Track frame offsets:
#	183
#	10510
#	24753
#	38785
#	58138
#	74783
#	87323
#	96675
#	109818
#	130580
#	143253
#	160503
#	174978
#	191633
#	208733
#	224633
#	242210
#	256283
#	270088
#	282838
#
# Disc length: 4015 seconds
#
# Revision: 0
# Processed by: cddbd v1.4PL0 Copyright (c) Steve Scherf et al.
# Submitted via: CDex 1.50beta9
#
DISCID=190fad14
DTITLE=Brendan O'Dowd - Irish Favourites Of Percy French
DYEAR=1900
DGENRE=Country
TTITLE0=Phil The Fluter's Ball
TTITLE1=The Mountains Of Mourne
TTITLE2=Whistlin' Phil McHugh
TTITLE3=Wait For A While Now Mary
TTITLE4=Drum Colliner
TTITLE5=Sweet Marie
TTITLE6=Eileen Oge
TTITLE7=Come Back Paddy Reilly
TTITLE8=Carmody's Mare
TTITLE9=The Fortunes Of Finnegan
TTITLE10=Slattery's Mounted Fut
TTITLE11=Gortnamona
TTITLE12=Are You Right There Michael
TTITLE13=The Emigrant's Letter
TTITLE14=Donegans Daughter
TTITLE15=Irish Mother
TTITLE16=That's Why Were Burying Him
TTITLE17=The Mary Anne McHugh
TTITLE18=Inishmeela
TTITLE19=Father O'Callaghan
EXTD=
EXTT0=
EXTT1=
EXTT2=
EXTT3=
EXTT4=
EXTT5=
EXTT6=
EXTT7=
EXTT8=
EXTT9=
EXTT10=
EXTT11=
EXTT12=
EXTT13=
EXTT14=
EXTT15=
EXTT16=
EXTT17=
EXTT18=
EXTT19=
PLAYORDER=
